<svg width="120" height="120" viewBox="0 0 120 120" fill="none" xmlns="http://www.w3.org/2000/svg">
<g clip-path="url(#clip0_52_10345)">
<path d="M119.95 78.7323L119.464 8.06658C119.437 4.07739 116.185 0.825857 112.196 0.798453L96.0492 0.687533L96.5841 78.572C96.6522 88.4497 88.634 96.4679 78.6617 96.4944L42.2835 96.1494C32.4054 96.0816 24.2766 87.9527 24.1132 77.979L23.8628 41.5063C23.7946 31.6286 31.8129 23.6103 41.7852 23.5839L72.7488 23.7967L72.5883 0.431407L41.5302 0.312998C18.7348 0.156507 0.246579 18.6447 0.403071 41.4402L0.653451 77.913C0.81029 100.708 19.5544 119.452 42.3496 119.609L78.8224 119.859C101.712 119.922 120.106 101.528 119.95 78.7323Z" fill="#26A4DA"/>
<path d="M63.1352 74.6918L74.0902 63.8863C75.7131 62.2855 75.7131 59.7513 74.0902 58.1504L60.2951 44.677L46.5 58.2837C44.8771 59.8845 44.8771 62.4193 46.5 64.0201L57.4549 74.8255C58.9426 76.1593 61.5123 76.1593 63.1352 74.6918Z" fill="#939598"/>
</g>
<defs>
<clipPath id="clip0_52_10345">
<rect width="120" height="120" fill="white"/>
</clipPath>
</defs>
</svg>
